<svg width="24" height="24" viewBox="0 0 24 24" fill="none" xmlns="http://www.w3.org/2000/svg">
<path d="M8.50282 6.25055L8.50086 6.25392L5.85976 3.61282C5.57814 3.33121 5.12155 3.33121 4.83994 3.61282C4.55832 3.89444 4.55832 4.35103 4.83994 4.63265L7.98178 7.7745C7.95833 7.95762 7.9466 8.14505 7.9466 8.33679C7.9466 8.86763 8.00558 9.33948 8.12354 9.75235C8.24642 10.1652 8.39879 10.5707 8.58065 10.9688C8.76251 11.3621 8.94929 11.797 9.14098 12.2738C9.33267 12.7506 9.5047 13.3109 9.65706 13.9548L9.96672 15.3692C9.96672 15.3692 10.0257 15.6347 10.1142 15.7231C10.2026 15.8067 10.3231 15.8485 10.4754 15.8485H14.8401C14.9974 15.8485 15.1178 15.8067 15.2013 15.7231C15.2898 15.6347 15.3488 15.3692 15.3488 15.3692L15.3897 15.1824L18.1402 17.9329C18.4218 18.2145 18.8784 18.2145 19.16 17.9329C19.4416 17.6513 19.4416 17.1947 19.16 16.9131L15.7675 13.5206L15.7687 13.5164L8.50282 6.25055Z" fill="currentColor"/>
<path d="M16.2894 11.9974C16.4442 11.6276 16.5927 11.2847 16.7349 10.9688C16.9167 10.5707 17.0666 10.1652 17.1846 9.75235C17.3075 9.33948 17.3689 8.86763 17.3689 8.33679C17.3689 7.7224 17.246 7.15225 17.0003 6.62633C16.7594 6.10041 16.4252 5.64084 15.9976 5.24763C15.57 4.85442 15.0711 4.54723 14.5009 4.32604C13.9308 4.09995 13.3164 3.9869 12.6578 3.9869C12.004 3.9869 11.3921 4.09995 10.822 4.32604C10.3029 4.5274 9.84088 4.80004 9.43589 5.14397L16.2894 11.9974Z" fill="currentColor"/>
<path d="M10.9646 16.4843C10.5663 16.4843 10.2434 16.8071 10.2434 17.2054C10.2434 17.6037 10.5663 17.9265 10.9646 17.9265H14.3535C14.7518 17.9265 15.0746 17.6037 15.0746 17.2054C15.0746 16.8071 14.7518 16.4843 14.3535 16.4843H10.9646Z" fill="currentColor"/>
<path d="M14.0553 18.5624C14.0553 19.3589 13.4096 20.0046 12.613 20.0046C11.8165 20.0046 11.1708 19.3589 11.1708 18.5624H14.0553Z" fill="currentColor"/>
</svg>
